<svg viewBox="0 0 1740 1148" xmlns="http://www.w3.org/2000/svg" font-family="Segoe UI, Roboto, Helvetica, Arial, sans-serif"><defs><filter id="sh" x="-20%" y="-20%" width="140%" height="140%"><feDropShadow dx="0" dy="2" stdDeviation="3" flood-color="#0b1b2b" flood-opacity="0.18"/></filter><marker id="ar" markerWidth="10" markerHeight="10" refX="7" refY="4" orient="auto"><path d="M0,0 L8,4 L0,8 z" fill="#475569"/></marker><marker id="arB" markerWidth="11" markerHeight="11" refX="8" refY="4" orient="auto"><path d="M0,0 L9,4 L0,8 z" fill="#1e6fc4"/></marker><marker id="arG" markerWidth="11" markerHeight="11" refX="8" refY="4" orient="auto"><path d="M0,0 L9,4 L0,8 z" fill="#15803d"/></marker></defs><rect width="1740" height="1148" fill="#ffffff"/><text x="870.0" y="44" text-anchor="middle" font-size="26" font-weight="800" fill="#0f1b2d">Live Infostealer Incident — SOC Detection &amp; Response Architecture</text><text x="870.0" y="70" text-anchor="middle" font-size="13.5" fill="#5b6470">Generalized view · defense-in-depth, analyst operations pipeline &amp; threat-intel sharing · no indicators shown</text><rect x="40" y="92" width="1660" height="150" rx="14" fill="#fbf1f1" stroke="#e8c9c9" stroke-dasharray="9 7"/><text x="62" y="119" font-size="13" font-weight="800" fill="#b91c1c" letter-spacing="0.6">THREAT ACTOR INFRASTRUCTURE · external / untrusted</text><g filter="url(#sh)"><rect x="66.0" y="150" width="288" height="58" rx="8" fill="#7d1d1d" stroke="#561111"/><text x="210.0" y="176" text-anchor="middle" font-size="14.5" font-weight="700" fill="#fff">Company</text><text x="210.0" y="194" text-anchor="middle" font-size="10.5" font-style="italic" fill="#ecd9df">[fake / impersonated]</text></g><line x1="358.0" y1="179.0" x2="392.0" y2="179.0" stroke="#9b6b6b" stroke-width="2" marker-end="url(#ar)"/><g filter="url(#sh)"><rect x="396.0" y="150" width="288" height="58" rx="8" fill="#7d1d1d" stroke="#561111"/><text x="540.0" y="176" text-anchor="middle" font-size="14.5" font-weight="700" fill="#fff">Recruiter</text><text x="540.0" y="194" text-anchor="middle" font-size="10.5" font-style="italic" fill="#ecd9df">[fake persona]</text></g><line x1="688.0" y1="179.0" x2="722.0" y2="179.0" stroke="#9b6b6b" stroke-width="2" marker-end="url(#ar)"/><g filter="url(#sh)"><rect x="726.0" y="150" width="288" height="58" rx="8" fill="#7d1d1d" stroke="#561111"/><text x="870.0" y="176" text-anchor="middle" font-size="14.5" font-weight="700" fill="#fff">Meeting App</text><text x="870.0" y="194" text-anchor="middle" font-size="10.5" font-style="italic" fill="#ecd9df">[rogue client]</text></g><line x1="1018.0" y1="179.0" x2="1052.0" y2="179.0" stroke="#9b6b6b" stroke-width="2" marker-end="url(#ar)"/><g filter="url(#sh)"><rect x="1056.0" y="150" width="288" height="58" rx="8" fill="#7d1d1d" stroke="#561111"/><text x="1200.0" y="176" text-anchor="middle" font-size="14.5" font-weight="700" fill="#fff">Malicious Installer</text><text x="1200.0" y="194" text-anchor="middle" font-size="10.5" font-style="italic" fill="#ecd9df">[ACRStealer]</text></g><line x1="1348.0" y1="179.0" x2="1382.0" y2="179.0" stroke="#9b6b6b" stroke-width="2" marker-end="url(#ar)"/><g filter="url(#sh)"><rect x="1386.0" y="150" width="288" height="58" rx="8" fill="#5b1262" stroke="#3d0c42"/><text x="1530.0" y="176" text-anchor="middle" font-size="14.5" font-weight="700" fill="#fff">C2 Server</text><text x="1530.0" y="194" text-anchor="middle" font-size="10.5" font-style="italic" fill="#ecd9df">[blocked]</text></g><line x1="1356.0" y1="170.0" x2="1374.0" y2="188.0" stroke="#b91c1c" stroke-width="3.5"/><line x1="1374.0" y1="170.0" x2="1356.0" y2="188.0" stroke="#b91c1c" stroke-width="3.5"/><line x1="40" y1="264" x2="1700" y2="264" stroke="#94a3b8" stroke-width="1.5" stroke-dasharray="10 7"/><rect x="685.0" y="253" width="370" height="24" rx="12" fill="#eef2f7" stroke="#cbd5e1"/><text x="870.0" y="269" text-anchor="middle" font-size="11.5" font-weight="700" fill="#33405a">▼  INTERNET / NETWORK PERIMETER  ▼</text><rect x="40" y="288" width="1660" height="312" rx="14" fill="#f7f9fc" stroke="#e2e8f0"/><text x="60" y="314" font-size="13" font-weight="800" fill="#33405a" letter-spacing="0.6">DEFENSE-IN-DEPTH · control layers the attack traversed</text><rect x="58" y="332" width="1624" height="52" rx="8" fill="#ffffff" stroke="#e2e8f0"/><rect x="58" y="332" width="7" height="52" rx="3.5" fill="#15803d"/><text x="82" y="354" font-size="13.5" font-weight="700" fill="#0f1b2d">Network — DNS &amp; URL filtering</text><text x="82" y="372" font-size="10.5" font-style="italic" fill="#5b6470">perimeter control</text><text x="418" y="364" font-size="12" fill="#33405a">Router IPS (Trend Micro HNS) · AdGuard DNS</text><rect x="1461.2" y="344" width="200.79999999999998" height="28" rx="14" fill="#15803d"/><text x="1561.6000000000001" y="363" text-anchor="middle" font-size="11" font-weight="700" fill="#fff">✓ HELD — C2 beacon blocked</text><rect x="58" y="396" width="1624" height="52" rx="8" fill="#ffffff" stroke="#e2e8f0"/><rect x="58" y="396" width="7" height="52" rx="3.5" fill="#15803d"/><text x="82" y="418" font-size="13.5" font-weight="700" fill="#0f1b2d">Web / Browser</text><text x="82" y="436" font-size="10.5" font-style="italic" fill="#5b6470">client protection</text><text x="418" y="428" font-size="12" fill="#33405a">uBlock Origin · Bitdefender Web Protection</text><rect x="1434.0" y="408" width="228.0" height="28" rx="14" fill="#15803d"/><text x="1548.0" y="427" text-anchor="middle" font-size="11" font-weight="700" fill="#fff">✓ HELD — related infra blocked</text><rect x="58" y="460" width="1624" height="52" rx="8" fill="#ffffff" stroke="#e2e8f0"/><rect x="58" y="460" width="7" height="52" rx="3.5" fill="#b91c1c"/><text x="82" y="482" font-size="13.5" font-weight="700" fill="#0f1b2d">Endpoint — Antivirus (EPP)</text><text x="82" y="500" font-size="10.5" font-style="italic" fill="#5b6470">host control</text><text x="418" y="492" font-size="12" fill="#33405a">Microsoft Defender — full scan</text><rect x="1427.2" y="472" width="234.79999999999998" height="28" rx="14" fill="#b91c1c"/><text x="1544.6000000000001" y="491" text-anchor="middle" font-size="11" font-weight="700" fill="#fff">✕ MISSED — installer undetected</text><rect x="58" y="524" width="1624" height="52" rx="8" fill="#ffffff" stroke="#e2e8f0"/><rect x="58" y="524" width="7" height="52" rx="3.5" fill="#b45309"/><text x="82" y="546" font-size="13.5" font-weight="700" fill="#0f1b2d">Host — Windows 11 endpoint</text><text x="82" y="564" font-size="10.5" font-style="italic" fill="#5b6470">protected asset</text><text x="418" y="556" font-size="12" fill="#33405a">Payload executed · DLL sideload via draw.io.exe</text><rect x="1502.0" y="536" width="160.0" height="28" rx="14" fill="#b45309"/><text x="1582.0" y="555" text-anchor="middle" font-size="11" font-weight="700" fill="#fff">⚠ COMPROMISE ASSUMED</text><line x1="870.0" y1="604" x2="870.0" y2="626" stroke="#1e6fc4" stroke-width="2.5" marker-end="url(#arB)"/><rect x="40" y="630" width="1660" height="258" rx="14" fill="#f7f9fc" stroke="#e2e8f0"/><text x="60" y="656" font-size="13" font-weight="800" fill="#0f6fc4" letter-spacing="0.6">SOC ANALYST OPERATIONS · incident-response pipeline (what I did)</text><g filter="url(#sh)"><rect x="58" y="674" width="308" height="200" rx="10" fill="#ffffff" stroke="#dbe3ec"/></g><path d="M58,684 a10,10 0 0 1 10,-10 h288 a10,10 0 0 1 10,10 v32 h-308 z" fill="#1f4e96"/><circle cx="83" cy="695" r="13" fill="#fff"/><text x="83" y="700" text-anchor="middle" font-size="14" font-weight="800" fill="#1f4e96">1</text><text x="104" y="701" font-size="12.5" font-weight="700" fill="#fff">DETECT &amp; CONTAIN</text><text x="73" y="738" font-size="11" fill="#243244">Isolated host from network</text><text x="73" y="755.5" font-size="11" fill="#243244">Killed connectivity; deleted dropper</text><text x="73" y="773.0" font-size="11" fill="#243244">Preserved sample on offline media</text><rect x="72" y="844" width="128.89600000000002" height="21.6" rx="10.8" fill="#eef3f8" stroke="#d7e0ea"/><text x="136.448" y="857.1" text-anchor="middle" font-size="9.6" font-weight="600" fill="#1f4e96">NIST IR · containment</text><line x1="370" y1="774.0" x2="380" y2="774.0" stroke="#1e6fc4" stroke-width="2" marker-end="url(#arB)"/><g filter="url(#sh)"><rect x="384" y="674" width="308" height="200" rx="10" fill="#ffffff" stroke="#dbe3ec"/></g><path d="M384,684 a10,10 0 0 1 10,-10 h288 a10,10 0 0 1 10,10 v32 h-308 z" fill="#155e75"/><circle cx="409" cy="695" r="13" fill="#fff"/><text x="409" y="700" text-anchor="middle" font-size="14" font-weight="800" fill="#155e75">2</text><text x="430" y="701" font-size="12.5" font-weight="700" fill="#fff">TRIAGE &amp; ANALYZE</text><text x="399" y="738" font-size="11" fill="#243244">Sandbox: VirusTotal, Hybrid</text><text x="399" y="755.5" font-size="11" fill="#243244">Analysis, Maltiverse</text><text x="399" y="773.0" font-size="11" fill="#243244">Classified ACRStealer; DLL</text><text x="399" y="790.5" font-size="11" fill="#243244">sideload via draw.io.exe</text><rect x="398" y="844" width="155.776" height="21.6" rx="10.8" fill="#eef3f8" stroke="#d7e0ea"/><text x="475.88800000000003" y="857.1" text-anchor="middle" font-size="9.6" font-weight="600" fill="#155e75">T1574.001 · malware triage</text><line x1="696" y1="774.0" x2="706" y2="774.0" stroke="#1e6fc4" stroke-width="2" marker-end="url(#arB)"/><g filter="url(#sh)"><rect x="710" y="674" width="308" height="200" rx="10" fill="#ffffff" stroke="#dbe3ec"/></g><path d="M710,684 a10,10 0 0 1 10,-10 h288 a10,10 0 0 1 10,10 v32 h-308 z" fill="#0f766e"/><circle cx="735" cy="695" r="13" fill="#fff"/><text x="735" y="700" text-anchor="middle" font-size="14" font-weight="800" fill="#0f766e">3</text><text x="756" y="701" font-size="12.5" font-weight="700" fill="#fff">INVESTIGATE</text><text x="725" y="738" font-size="11" fill="#243244">WHOIS + domain-age analysis</text><text x="725" y="755.5" font-size="11" fill="#243244">Shared NS pivot → one operator</text><text x="725" y="773.0" font-size="11" fill="#243244">Email auth: SPF/DKIM/DMARC PASS</text><text x="725" y="790.5" font-size="11" fill="#243244">via Amazon SES (abused sender)</text><rect x="724" y="844" width="139.648" height="21.6" rx="10.8" fill="#eef3f8" stroke="#d7e0ea"/><text x="793.824" y="857.1" text-anchor="middle" font-size="9.6" font-weight="600" fill="#0f766e">OSINT · email forensics</text><line x1="1022" y1="774.0" x2="1032" y2="774.0" stroke="#1e6fc4" stroke-width="2" marker-end="url(#arB)"/><g filter="url(#sh)"><rect x="1036" y="674" width="308" height="200" rx="10" fill="#ffffff" stroke="#dbe3ec"/></g><path d="M1036,684 a10,10 0 0 1 10,-10 h288 a10,10 0 0 1 10,10 v32 h-308 z" fill="#15803d"/><circle cx="1061" cy="695" r="13" fill="#fff"/><text x="1061" y="700" text-anchor="middle" font-size="14" font-weight="800" fill="#15803d">4</text><text x="1082" y="701" font-size="12.5" font-weight="700" fill="#fff">EXTRACT &amp; MAP</text><text x="1051" y="738" font-size="11" fill="#243244">Extracted domains, IPs, hashes</text><text x="1051" y="755.5" font-size="11" fill="#243244">Filtered benign cert/OCSP noise</text><text x="1051" y="773.0" font-size="11" fill="#243244">Mapped chain to MITRE ATT&amp;CK</text><rect x="1050" y="844" width="139.648" height="21.6" rx="10.8" fill="#eef3f8" stroke="#d7e0ea"/><text x="1119.824" y="857.1" text-anchor="middle" font-size="9.6" font-weight="600" fill="#15803d">IOC enrichment · ATT&amp;CK</text><line x1="1348" y1="774.0" x2="1358" y2="774.0" stroke="#1e6fc4" stroke-width="2" marker-end="url(#arB)"/><g filter="url(#sh)"><rect x="1362" y="674" width="308" height="200" rx="10" fill="#ffffff" stroke="#dbe3ec"/></g><path d="M1362,684 a10,10 0 0 1 10,-10 h288 a10,10 0 0 1 10,10 v32 h-308 z" fill="#166534"/><circle cx="1387" cy="695" r="13" fill="#fff"/><text x="1387" y="700" text-anchor="middle" font-size="14" font-weight="800" fill="#166534">5</text><text x="1408" y="701" font-size="12.5" font-weight="700" fill="#fff">REPORT &amp; REMEDIATE</text><text x="1377" y="738" font-size="11" fill="#243244">Takedown + blocklists submitted</text><text x="1377" y="755.5" font-size="11" fill="#243244">Assume-breach: revoke sessions,</text><text x="1377" y="773.0" font-size="11" fill="#243244">rotate credentials, rebuild host</text><rect x="1376" y="844" width="177.28000000000003" height="21.6" rx="10.8" fill="#eef3f8" stroke="#d7e0ea"/><text x="1464.64" y="857.1" text-anchor="middle" font-size="9.6" font-weight="600" fill="#166534">threat reporting · remediation</text><line x1="870.0" y1="892" x2="870.0" y2="914" stroke="#15803d" stroke-width="2.5" marker-end="url(#arG)"/><rect x="775.0" y="894" width="190" height="20" rx="10" fill="#e9f7ef" stroke="#bfe6cd"/><text x="870.0" y="908" text-anchor="middle" font-size="11" font-weight="700" fill="#15803d">feeds outputs ↓</text><rect x="40" y="920" width="1660" height="140" rx="14" fill="#f7f9fc" stroke="#e2e8f0"/><text x="60" y="946" font-size="13" font-weight="800" fill="#15803d" letter-spacing="0.6">THREAT-INTELLIGENCE SHARING &amp; TAKEDOWN · outputs</text><rect x="58" y="960" width="393.5" height="84" rx="9" fill="#ffffff" stroke="#e2e8f0"/><rect x="58" y="960" width="393.5" height="6" rx="3" fill="#7c2d12"/><text x="70" y="984" font-size="10.5" font-weight="800" fill="#7c2d12" letter-spacing="0.4">TAKEDOWN / HOSTING</text><text x="70" y="998" font-size="10.5" fill="#243244">• Cloudflare (abuse)</text><text x="70" y="1013" font-size="10.5" fill="#243244">• Domain registrars</text><text x="70" y="1028" font-size="10.5" fill="#243244">• ·CO registry (escalation)</text><rect x="469.5" y="960" width="393.5" height="84" rx="9" fill="#ffffff" stroke="#e2e8f0"/><rect x="469.5" y="960" width="393.5" height="6" rx="3" fill="#1e4e8c"/><text x="481.5" y="984" font-size="10.5" font-weight="800" fill="#1e4e8c" letter-spacing="0.4">BLOCKLISTS &amp; AV</text><text x="481.5" y="998" font-size="10.5" fill="#243244">• Google Safe Browsing</text><text x="481.5" y="1013" font-size="10.5" fill="#243244">• Microsoft SmartScreen / Defender</text><text x="481.5" y="1028" font-size="10.5" fill="#243244">• abuse.ch: URLhaus · ThreatFox · MalwareBazaar</text><rect x="881.0" y="960" width="393.5" height="84" rx="9" fill="#ffffff" stroke="#e2e8f0"/><rect x="881.0" y="960" width="393.5" height="6" rx="3" fill="#5b1262"/><text x="893.0" y="984" font-size="10.5" font-weight="800" fill="#5b1262" letter-spacing="0.4">LAW ENFORCEMENT</text><text x="893.0" y="998" font-size="10.5" fill="#243244">• FBI IC3</text><text x="893.0" y="1013" font-size="10.5" fill="#243244">• FTC</text><rect x="1292.5" y="960" width="393.5" height="84" rx="9" fill="#ffffff" stroke="#e2e8f0"/><rect x="1292.5" y="960" width="393.5" height="6" rx="3" fill="#0f766e"/><text x="1304.5" y="984" font-size="10.5" font-weight="800" fill="#0f766e" letter-spacing="0.4">DOCUMENTATION &amp; SHARING</text><text x="1304.5" y="998" font-size="10.5" fill="#243244">• IOC list</text><text x="1304.5" y="1013" font-size="10.5" fill="#243244">• MITRE ATT&amp;CK map</text><text x="1304.5" y="1028" font-size="10.5" fill="#243244">• Incident report · GitHub</text><rect x="40" y="1074" width="1120" height="56" rx="10" fill="#f5f8fc" stroke="#dbe6f1"/><text x="58" y="1097" font-size="11.5" font-weight="800" fill="#0f1b2d">Frameworks &amp; methods</text><text x="58" y="1117" font-size="11.3" fill="#33405a">MITRE ATT&amp;CK · NIST incident-response lifecycle · defense-in-depth · assume-breach · IOC enrichment</text><rect x="1176" y="1074" width="524" height="56" rx="10" fill="#fff7ed" stroke="#fcd9b0"/><text x="1194" y="1097" font-size="11.5" font-weight="800" fill="#b45309">KEY INSIGHT</text><text x="1194" y="1117" font-size="11.3" fill="#7c3a13">Network-layer filtering caught what endpoint antivirus missed.</text></svg>